<?xml version="1.0" encoding="UTF-8" standalone="no"?>
<!-- Created with Inkscape (http://www.inkscape.org/) -->

<svg
   xmlns:dc="http://purl.org/dc/elements/1.1/"
   xmlns:cc="http://creativecommons.org/ns#"
   xmlns:rdf="http://www.w3.org/1999/02/22-rdf-syntax-ns#"
   xmlns:svg="http://www.w3.org/2000/svg"
   xmlns="http://www.w3.org/2000/svg"
   xmlns:sodipodi="http://sodipodi.sourceforge.net/DTD/sodipodi-0.dtd"
   xmlns:inkscape="http://www.inkscape.org/namespaces/inkscape"
   width="238"
   height="35"
   viewBox="0 0 62.970841 9.2604169"
   version="1.1"
   id="svg8"
   inkscape:version="0.92.4 5da689c313, 2019-01-14"
   sodipodi:docname="logo.svg">
  <defs
     id="defs2" />
  <sodipodi:namedview
     id="base"
     pagecolor="#ffffff"
     bordercolor="#666666"
     borderopacity="1.0"
     inkscape:pageopacity="0.0"
     inkscape:pageshadow="2"
     inkscape:zoom="11.313708"
     inkscape:cx="206.95239"
     inkscape:cy="17.5"
     inkscape:document-units="mm"
     inkscape:current-layer="layer1"
     showgrid="false"
     units="px"
     inkscape:window-width="1920"
     inkscape:window-height="1039"
     inkscape:window-x="0"
     inkscape:window-y="0"
     inkscape:window-maximized="1" />
  <metadata
     id="metadata5">
    <rdf:RDF>
      <cc:Work
         rdf:about="">
        <dc:format>image/svg+xml</dc:format>
        <dc:type
           rdf:resource="http://purl.org/dc/dcmitype/StillImage" />
        <dc:title></dc:title>
      </cc:Work>
    </rdf:RDF>
  </metadata>
  <g
     inkscape:label="Layer 1"
     inkscape:groupmode="layer"
     id="layer1"
     transform="translate(0,-287.73957)">
    <g
       aria-label="enzobarrett.dev"
       transform="matrix(0.29312204,0,0,0.29312204,-1.0059189,287.94729)"
       style="font-style:normal;font-variant:normal;font-weight:normal;font-stretch:normal;font-size:14.66666698px;line-height:1.25;font-family:Tomorrow;-inkscape-font-specification:Tomorrow;letter-spacing:0px;word-spacing:0px;fill:#000000;fill-opacity:1;stroke:none"
       id="flowRoot831">
      <path
         d="m 7.9166669,29.805557 -2.8000001,-2.8 V 18.65889 l 2.8000001,-2.800001 h 6.2133341 l 2.8,2.800001 v 5.04 H 7.4633335 v 2.693333 l 1.4666668,1.466667 h 7.7600007 v 1.946667 z M 7.4633335,21.832223 h 7.1200005 v -2.64 L 13.116667,17.725556 H 8.9300003 l -1.4666668,1.466667 z"
         style="font-size:26.66666794px"
         id="path826"
         inkscape:connector-curvature="0" />
      <path
         d="M 20.983288,29.805557 V 15.858889 h 2.346667 v 2.506667 l 2.426667,-2.506667 h 5.146667 l 2.773333,2.800001 V 29.805557 H 31.329955 V 19.245556 l -1.413333,-1.52 h -3.546667 l -3.04,3.093334 v 8.986667 z"
         style="font-size:26.66666794px"
         id="path828"
         inkscape:connector-curvature="0" />
      <path
         d="m 37.143245,29.805557 v -2.4 l 8.693334,-9.573334 h -8.08 v -1.973334 h 10.72 v 2.400001 l -8.693334,9.6 h 8.906667 v 1.946667 z"
         style="font-size:26.66666794px"
         id="path830"
         inkscape:connector-curvature="0" />
      <path
         d="m 54.636485,29.805557 -2.8,-2.8 V 18.65889 l 2.8,-2.800001 h 6.613334 l 2.8,2.800001 v 8.346667 l -2.8,2.8 z m 1.013333,-1.866667 h 4.586667 l 1.466667,-1.466667 -0.02667,-7.28 -1.44,-1.466667 h -4.586667 l -1.466666,1.466667 v 7.28 z"
         style="font-size:26.66666794px"
         id="path832"
         inkscape:connector-curvature="0" />
      <path
         d="M 68.10314,29.805557 V 10.152223 h 2.346667 v 7.92 l 2.133333,-2.213334 h 5.146667 l 2.773334,2.800001 v 8.346667 l -2.773334,2.8 H 72.58314 L 70.449807,27.61889 v 2.186667 z m 5.093334,-1.866667 h 3.52 l 1.44,-1.466667 v -7.28 l -1.44,-1.466667 h -3.52 l -2.746667,2.8 v 4.640001 z"
         style="font-size:26.66666794px"
         id="path834"
         inkscape:connector-curvature="0" />
      <path
         d="m 86.076441,29.805557 -2.773334,-2.8 v -3.173334 l 2.773334,-2.8 h 7.093333 V 19.29889 l -1.44,-1.466667 h -6.613333 v -1.973334 h 7.626667 l 2.773333,2.800001 v 11.146667 h -2.346667 v -2.16 l -2.16,2.16 z m 1.04,-1.866667 h 3.306667 l 2.746666,-2.72 v -2.346667 l -6.053333,0.02667 -1.466667,1.44 v 2.133333 z"
         style="font-size:26.66666794px"
         id="path836"
         inkscape:connector-curvature="0" />
      <path
         d="M 99.75643,29.805557 V 15.858889 h 2.34667 v 2.506667 l 2.42666,-2.506667 h 3.57334 v 2.346667 h -3.46667 l -2.53333,2.613334 v 8.986667 z"
         style="font-size:26.66666794px"
         id="path838"
         inkscape:connector-curvature="0" />
      <path
         d="M 110.58305,29.805557 V 15.858889 h 2.34667 v 2.506667 l 2.42667,-2.506667 h 3.57333 v 2.346667 h -3.46667 l -2.53333,2.613334 v 8.986667 z"
         style="font-size:26.66666794px"
         id="path840"
         inkscape:connector-curvature="0" />
      <path
         d="m 123.59629,29.805557 -2.8,-2.8 V 18.65889 l 2.8,-2.800001 h 6.21334 l 2.8,2.800001 v 5.04 h -9.46667 v 2.693333 l 1.46667,1.466667 h 7.76 v 1.946667 z m -0.45333,-7.973334 h 7.12 v -2.64 l -1.46667,-1.466667 h -4.18666 l -1.46667,1.466667 z"
         style="font-size:26.66666794px"
         id="path842"
         inkscape:connector-curvature="0" />
      <path
         d="m 139.27626,29.805557 -2.45334,-2.426667 v -9.653334 h -1.46666 v -1.866667 h 1.52 l 0.58666,-3.573333 h 1.70667 v 3.573333 h 2.96 v 1.866667 h -2.96 v 8.826667 l 1.25333,1.306667 h 2.32 v 1.946667 z"
         style="font-size:26.66666794px"
         id="path844"
         inkscape:connector-curvature="0" />
      <path
         d="m 148.20956,29.805557 -2.45333,-2.426667 v -9.653334 h -1.46667 v -1.866667 h 1.52 l 0.58667,-3.573333 h 1.70666 v 3.573333 h 2.96 v 1.866667 h -2.96 v 8.826667 l 1.25334,1.306667 h 2.32 v 1.946667 z"
         style="font-size:26.66666794px"
         id="path846"
         inkscape:connector-curvature="0" />
      <path
         d="M 154.02287,29.805557 V 26.65889 h 2.34666 v 3.146667 z"
         style="font-size:26.66666794px"
         id="path848"
         inkscape:connector-curvature="0" />
      <path
         d="m 162.98284,29.805557 -2.8,-2.8 V 18.65889 l 2.8,-2.800001 h 5.12 l 2.16,2.213334 v -7.92 h 2.34667 v 19.653334 h -2.34667 V 27.61889 l -2.16,2.186667 z m 4.53334,-1.866667 2.74666,-2.773333 v -4.640001 l -2.74666,-2.8 h -3.52 l -1.46667,1.466667 v 7.28 l 1.46667,1.466667 z"
         style="font-size:26.66666794px"
         id="path850"
         inkscape:connector-curvature="0" />
      <path
         d="m 179.43614,29.805557 -2.8,-2.8 V 18.65889 l 2.8,-2.800001 h 6.21333 l 2.8,2.800001 v 5.04 h -9.46667 v 2.693333 l 1.46667,1.466667 h 7.76 v 1.946667 z m -0.45334,-7.973334 h 7.12 v -2.64 l -1.46666,-1.466667 h -4.18667 l -1.46667,1.466667 z"
         style="font-size:26.66666794px"
         id="path852"
         inkscape:connector-curvature="0" />
      <path
         d="m 196.23609,29.805557 -5.92,-13.946668 h 2.56 l 4.50667,11.600001 h 0.61333 l 4.48,-11.600001 h 2.58667 l -5.92,13.946668 z"
         style="font-size:26.66666794px"
         id="path854"
         inkscape:connector-curvature="0" />
    </g>
    <text
       xml:space="preserve"
       style="font-style:normal;font-variant:normal;font-weight:normal;font-stretch:normal;font-size:3.88055563px;line-height:1.25;font-family:Tomorrow;-inkscape-font-specification:Tomorrow;letter-spacing:0px;word-spacing:0px;fill:#000000;fill-opacity:1;stroke:none;stroke-width:0.26458332"
       x="23.151041"
       y="284.23383"
       id="text841"><tspan
         sodipodi:role="line"
         id="tspan839"
         x="23.151041"
         y="287.9527"
         style="stroke-width:0.26458332" /></text>
    <flowRoot
       xml:space="preserve"
       id="flowRoot843"
       style="font-style:normal;font-variant:normal;font-weight:normal;font-stretch:normal;font-size:14.66666698px;line-height:1.25;font-family:Tomorrow;-inkscape-font-specification:Tomorrow;letter-spacing:0px;word-spacing:0px;fill:#000000;fill-opacity:1;stroke:none"
       transform="matrix(0.26458333,0,0,0.26458333,0,289.59165)"><flowRegion
         id="flowRegion845"><rect
           id="rect847"
           width="33.500004"
           height="19.75"
           x="213.5"
           y="3.75" /></flowRegion><flowPara
         id="flowPara849"
         style="font-style:normal;font-variant:normal;font-weight:normal;font-stretch:normal;font-family:D050000L;-inkscape-font-specification:D050000L">IRC</flowPara></flowRoot>    <g
       aria-label="IRC"
       transform="matrix(0.24208307,0.10677136,-0.10677136,0.24208307,6.7935196,263.60696)"
       style="font-style:normal;font-variant:normal;font-weight:normal;font-stretch:normal;font-size:14.66666698px;line-height:1.25;font-family:'Source Code Pro';-inkscape-font-specification:'Source Code Pro';letter-spacing:0px;word-spacing:0px;fill:#000000;fill-opacity:1;stroke:none"
       id="flowRoot851">
      <path
         d="m 211.14333,18.083334 h 6.01334 V 17.042 H 214.766 V 9.4886668 h 2.39067 V 8.4620001 h -6.01334 V 9.4886668 H 213.534 V 17.042 h -2.39067 z"
         style="fill:#ff2a2a;fill-opacity:1"
         id="path857"
         inkscape:connector-curvature="0" />
      <path
         d="m 220.01664,18.083334 h 1.21734 v -4.062667 h 1.716 l 2.31733,4.062667 h 1.39334 l -2.44934,-4.194667 c 1.30534,-0.337333 2.156,-1.232 2.156,-2.728 0,-1.9946669 -1.408,-2.6986669 -3.35866,-2.6986669 h -2.99201 z m 1.21734,-5.06 V 9.4446668 h 1.59867 c 1.496,0 2.31733,0.4546666 2.31733,1.7160002 0,1.246666 -0.82133,1.862667 -2.31733,1.862667 z"
         style="fill:#ff2a2a;fill-opacity:1"
         id="path859"
         inkscape:connector-curvature="0" />
      <path
         d="m 232.49796,18.259334 c 1.276,0 2.21466,-0.513334 2.97733,-1.393334 l -0.68933,-0.748 c -0.616,0.689334 -1.29067,1.070667 -2.17067,1.070667 -1.848,0 -3.05067,-1.525333 -3.05067,-3.945333 0,-2.390667 1.20267,-3.8866672 3.05067,-3.8866672 0.80667,0 1.43733,0.352 1.936,0.8800002 l 0.68933,-0.7773336 c -0.55733,-0.616 -1.48133,-1.1733333 -2.62533,-1.1733333 -2.508,0 -4.312,1.8919999 -4.312,4.9866669 0,3.138667 1.81867,4.986667 4.19467,4.986667 z"
         style="fill:#ff2a2a;fill-opacity:1"
         id="path861"
         inkscape:connector-curvature="0" />
    </g>
  </g>
</svg>
